<svg xmlns="http://www.w3.org/2000/svg" width="1200" height="720" viewBox="0 0 1200 720">
  <rect width="1200" height="720" fill="#f6f3ea" />

  <rect x="60" y="40" width="1080" height="140" rx="18" fill="#ffffff" stroke="#e2dbcf" />
  <text x="90" y="75" font-family="Inter, Arial, sans-serif" font-size="26" font-weight="700" fill="#2b2b2b">PrepTalk</text>
  <text x="90" y="98" font-family="Inter, Arial, sans-serif" font-size="13" fill="#6a6259">Contextual interview coach</text>
  <text x="90" y="128" font-family="Inter, Arial, sans-serif" font-size="22" font-weight="700" fill="#1f2937">State: Scoring/results</text>

  <rect x="900" y="70" width="200" height="32" rx="16" fill="#f3f4f6" />
  <text x="930" y="91" font-family="Inter, Arial, sans-serif" font-size="12" fill="#6b7280">Show instructions</text>

  <rect x="60" y="200" width="320" height="60" rx="14" fill="#ffffff" stroke="#e2dbcf" />
  <text x="80" y="236" font-family="Inter, Arial, sans-serif" font-size="14" font-weight="700" fill="#2b2b2b">Candidate Setup (collapsed)</text>
  <rect x="260" y="214" width="90" height="28" rx="14" fill="#f3f4f6" />
  <text x="280" y="233" font-family="Inter, Arial, sans-serif" font-size="11" fill="#6b7280">Expand</text>

  <rect x="60" y="272" width="320" height="60" rx="14" fill="#ffffff" stroke="#e2dbcf" />
  <text x="80" y="308" font-family="Inter, Arial, sans-serif" font-size="14" font-weight="700" fill="#2b2b2b">Transcript (collapsed)</text>
  <rect x="260" y="286" width="90" height="28" rx="14" fill="#f3f4f6" />
  <text x="280" y="305" font-family="Inter, Arial, sans-serif" font-size="11" fill="#6b7280">Show</text>

  <rect x="60" y="344" width="320" height="240" rx="16" fill="#ffffff" stroke="#e2dbcf" />
  <text x="80" y="376" font-family="Inter, Arial, sans-serif" font-size="16" font-weight="700" fill="#2b2b2b">Session Controls</text>
  <rect x="80" y="398" width="120" height="34" rx="10" fill="#f3f4f6" />
  <text x="110" y="420" font-family="Inter, Arial, sans-serif" font-size="12" fill="#6b7280">Extras</text>
  <rect x="210" y="398" width="150" height="34" rx="10" fill="#f3f4f6" />
  <text x="250" y="420" font-family="Inter, Arial, sans-serif" font-size="12" fill="#6b7280">Restart</text>
  <rect x="80" y="442" width="280" height="38" rx="10" fill="#f9fafb" stroke="#e5e7eb" />
  <text x="92" y="466" font-family="Inter, Arial, sans-serif" font-size="11" fill="#6b7280">Session name (rename)</text>
  <text x="80" y="500" font-family="Inter, Arial, sans-serif" font-size="12" fill="#8b8b8b">Extras remain available after stop.</text>

  <rect x="400" y="200" width="400" height="320" rx="16" fill="#ffffff" stroke="#e2dbcf" />
  <text x="420" y="232" font-family="Inter, Arial, sans-serif" font-size="16" font-weight="700" fill="#2b2b2b">Score Summary</text>
  <text x="420" y="260" font-family="Inter, Arial, sans-serif" font-size="12" fill="#6b7280">Strengths, gaps, focus next.</text>
  <rect x="420" y="284" width="360" height="70" rx="12" fill="#f9fafb" stroke="#e5e7eb" />
  <text x="440" y="322" font-family="Inter, Arial, sans-serif" font-size="12" fill="#6b7280">Overall: 82</text>

  <rect x="820" y="200" width="320" height="200" rx="16" fill="#ffffff" stroke="#e2dbcf" />
  <text x="840" y="232" font-family="Inter, Arial, sans-serif" font-size="16" font-weight="700" fill="#2b2b2b">Exports</text>
  <rect x="840" y="256" width="120" height="34" rx="10" fill="#f3f4f6" />
  <text x="868" y="278" font-family="Inter, Arial, sans-serif" font-size="12" fill="#6b7280">Export PDF</text>
  <rect x="980" y="256" width="120" height="34" rx="10" fill="#f3f4f6" />
  <text x="1008" y="278" font-family="Inter, Arial, sans-serif" font-size="12" fill="#6b7280">Export TXT</text>
  <text x="840" y="308" font-family="Inter, Arial, sans-serif" font-size="12" fill="#8b8b8b">Questions hidden after stop.</text>
</svg>
