<svg xmlns="http://www.w3.org/2000/svg" width="460" height="900" viewBox="0 0 460 900">
  <style>
    .frame { fill: #ffffff; stroke: #b8b8b8; stroke-width: 2; }
    .panel { fill: #f6f6f6; stroke: #cfcfcf; stroke-width: 1.5; }
    .panel-hidden { fill: #ffffff; stroke: #d0d0d0; stroke-width: 1.5; stroke-dasharray: 6 4; }
    .title { font: 700 18px Arial, sans-serif; fill: #303030; }
    .label { font: 600 14px Arial, sans-serif; fill: #333333; }
    .text { font: 12px Arial, sans-serif; fill: #4a4a4a; }
    .chip { fill: #eef4f6; stroke: #b7c3c8; stroke-width: 1; }
    .btn-primary { fill: #d9eef2; stroke: #1f4d5c; stroke-width: 2.5; }
    .btn-secondary { fill: #ffffff; stroke: #5a7b86; stroke-width: 2; }
    .btn-tertiary { fill: #ffffff; stroke: #b0b0b0; stroke-width: 1.5; }
  </style>

  <rect x="10" y="10" width="440" height="880" class="frame"/>
  <text x="24" y="40" class="title">Stage 1 — Setup (Mobile)</text>
  <text x="24" y="62" class="text">PrepTalk • 2-line intro</text>

  <rect x="24" y="78" width="110" height="22" rx="6" class="chip"/>
  <text x="32" y="94" class="text">Inputs ready</text>
  <rect x="140" y="78" width="140" height="22" rx="6" class="chip"/>
  <text x="148" y="94" class="text">Questions ready</text>

  <rect x="24" y="110" width="412" height="240" class="panel"/>
  <text x="40" y="135" class="label">Candidate Setup</text>
  <rect x="40" y="150" width="360" height="34" class="panel"/>
  <text x="50" y="172" class="text">Resume file</text>
  <rect x="40" y="190" width="360" height="34" class="panel"/>
  <text x="50" y="212" class="text">Job file</text>
  <rect x="40" y="230" width="360" height="34" class="panel"/>
  <text x="50" y="252" class="text">Job URL</text>

  <rect x="40" y="275" width="220" height="40" rx="8" class="btn-primary"/>
  <text x="55" y="300" class="label">Generate Questions (P)</text>

  <rect x="24" y="365" width="412" height="190" class="panel-hidden"/>
  <text x="40" y="390" class="label">Questions (hidden until generated)</text>
  <text x="40" y="415" class="text">Panel appears once questions exist.</text>

  <rect x="24" y="565" width="412" height="200" class="panel-hidden"/>
  <text x="40" y="590" class="label">Session Controls (hidden until ready)</text>
  <text x="40" y="615" class="text">Start/Continue/Extras appear later.</text>
</svg>
