<svg xmlns="http://www.w3.org/2000/svg" width="460" height="900" viewBox="0 0 460 900">
  <style>
    .frame { fill: #ffffff; stroke: #b8b8b8; stroke-width: 2; }
    .panel { fill: #f6f6f6; stroke: #cfcfcf; stroke-width: 1.5; }
    .title { font: 700 18px Arial, sans-serif; fill: #303030; }
    .label { font: 600 14px Arial, sans-serif; fill: #333333; }
    .text { font: 12px Arial, sans-serif; fill: #4a4a4a; }
    .chip { fill: #eef4f6; stroke: #b7c3c8; stroke-width: 1; }
    .btn-primary { fill: #d9eef2; stroke: #1f4d5c; stroke-width: 2.5; }
    .btn-secondary { fill: #ffffff; stroke: #5a7b86; stroke-width: 2; }
    .btn-tertiary { fill: #ffffff; stroke: #b0b0b0; stroke-width: 1.5; }
  </style>

  <rect x="10" y="10" width="440" height="880" class="frame"/>
  <text x="24" y="40" class="title">Stage 3 — Results (Mobile)</text>

  <rect x="24" y="60" width="412" height="200" class="panel"/>
  <text x="40" y="85" class="label">Score Summary</text>
  <rect x="40" y="100" width="110" height="22" rx="6" class="chip"/>
  <text x="48" y="116" class="text">Score ready</text>
  <text x="40" y="145" class="text">Strengths, focus areas...</text>

  <rect x="24" y="270" width="412" height="220" class="panel"/>
  <text x="40" y="295" class="label">Actions</text>
  <rect x="40" y="315" width="240" height="44" rx="8" class="btn-primary"/>
  <text x="55" y="343" class="label">Restart Interview (P)</text>
  <rect x="40" y="365" width="200" height="40" rx="8" class="btn-secondary"/>
  <text x="55" y="391" class="label">Export PDF (S)</text>
  <rect x="40" y="412" width="200" height="40" rx="8" class="btn-secondary"/>
  <text x="55" y="438" class="label">Export TXT (S)</text>

  <rect x="24" y="500" width="412" height="160" class="panel"/>
  <text x="40" y="525" class="label">Transcript (collapsed)</text>
  <rect x="40" y="545" width="160" height="34" rx="8" class="btn-tertiary"/>
  <text x="55" y="568" class="label">View Transcript (T)</text>
  <rect x="40" y="585" width="120" height="34" rx="8" class="btn-tertiary"/>
  <text x="55" y="608" class="label">Extras (T)</text>
</svg>
